<?xml version="1.0" encoding="UTF-8" standalone="no"?>
<!DOCTYPE svg PUBLIC "-//W3C//DTD SVG 1.1//EN"
 "http://www.w3.org/Graphics/SVG/1.1/DTD/svg11.dtd">
<!-- Generated by graphviz version 2.43.0 (0)
 -->
<!-- Title: snakemake_dag Pages: 1 -->
<svg width="116pt" height="260pt"
 viewBox="0.00 0.00 116.00 260.00" xmlns="http://www.w3.org/2000/svg" xmlns:xlink="http://www.w3.org/1999/xlink">
<g id="graph0" class="graph" transform="scale(1 1) rotate(0) translate(4 256)">
<title>snakemake_dag</title>
<polygon fill="white" stroke="transparent" points="-4,4 -4,-256 112,-256 112,4 -4,4"/>
<!-- 0 -->
<g id="node1" class="node">
<title>0</title>
<path fill="none" stroke="#56d8d8" stroke-width="2" stroke-dasharray="5,2" d="M69,-36C69,-36 39,-36 39,-36 33,-36 27,-30 27,-24 27,-24 27,-12 27,-12 27,-6 33,0 39,0 39,0 69,0 69,0 75,0 81,-6 81,-12 81,-12 81,-24 81,-24 81,-30 75,-36 69,-36"/>
<text text-anchor="middle" x="54" y="-15.5" font-family="sans" font-size="10.00">prokka</text>
</g>
<!-- 1 -->
<g id="node2" class="node">
<title>1</title>
<path fill="none" stroke="#d6d856" stroke-width="2" stroke-dasharray="5,2" d="M69,-108C69,-108 39,-108 39,-108 33,-108 27,-102 27,-96 27,-96 27,-84 27,-84 27,-78 33,-72 39,-72 39,-72 69,-72 69,-72 75,-72 81,-78 81,-84 81,-84 81,-96 81,-96 81,-102 75,-108 69,-108"/>
<text text-anchor="middle" x="54" y="-87.5" font-family="sans" font-size="10.00">quast</text>
</g>
<!-- 1&#45;&gt;0 -->
<g id="edge1" class="edge">
<title>1&#45;&gt;0</title>
<path fill="none" stroke="grey" stroke-width="2" d="M54,-71.7C54,-63.98 54,-54.71 54,-46.11"/>
<polygon fill="grey" stroke="grey" stroke-width="2" points="57.5,-46.1 54,-36.1 50.5,-46.1 57.5,-46.1"/>
</g>
<!-- 2 -->
<g id="node3" class="node">
<title>2</title>
<path fill="none" stroke="#d85656" stroke-width="2" stroke-dasharray="5,2" d="M69,-180C69,-180 39,-180 39,-180 33,-180 27,-174 27,-168 27,-168 27,-156 27,-156 27,-150 33,-144 39,-144 39,-144 69,-144 69,-144 75,-144 81,-150 81,-156 81,-156 81,-168 81,-168 81,-174 75,-180 69,-180"/>
<text text-anchor="middle" x="54" y="-159.5" font-family="sans" font-size="10.00">spades</text>
</g>
<!-- 2&#45;&gt;1 -->
<g id="edge2" class="edge">
<title>2&#45;&gt;1</title>
<path fill="none" stroke="grey" stroke-width="2" d="M54,-143.7C54,-135.98 54,-126.71 54,-118.11"/>
<polygon fill="grey" stroke="grey" stroke-width="2" points="57.5,-118.1 54,-108.1 50.5,-118.1 57.5,-118.1"/>
</g>
<!-- 3 -->
<g id="node4" class="node">
<title>3</title>
<path fill="none" stroke="#59d856" stroke-width="2" stroke-dasharray="5,2" d="M96,-252C96,-252 12,-252 12,-252 6,-252 0,-246 0,-240 0,-240 0,-228 0,-228 0,-222 6,-216 12,-216 12,-216 96,-216 96,-216 102,-216 108,-222 108,-228 108,-228 108,-240 108,-240 108,-246 102,-252 96,-252"/>
<text text-anchor="middle" x="54" y="-237" font-family="sans" font-size="10.00">trim_galore_pe</text>
<text text-anchor="middle" x="54" y="-226" font-family="sans" font-size="10.00">sample: clock_10K</text>
</g>
<!-- 3&#45;&gt;2 -->
<g id="edge3" class="edge">
<title>3&#45;&gt;2</title>
<path fill="none" stroke="grey" stroke-width="2" d="M54,-215.7C54,-207.98 54,-198.71 54,-190.11"/>
<polygon fill="grey" stroke="grey" stroke-width="2" points="57.5,-190.1 54,-180.1 50.5,-190.1 57.5,-190.1"/>
</g>
</g>
</svg>
